<svg width="353" height="356" viewBox="0 0 353 356" fill="none" xmlns="http://www.w3.org/2000/svg">
<rect x="10.7799" y="14.6499" width="331.3" height="330.757" fill="#090909"/>
<path d="M40.7993 315.44V285.411L62.9185 280.723V137.022L40.7993 132.334V102.159H62.9185H137.333C164.188 102.159 185.135 107.09 200.174 116.954C215.213 126.817 222.733 141.514 222.733 161.045C222.733 171.104 220.34 180.137 215.555 188.145C210.77 196.055 203.397 202.061 193.436 206.163C201.932 208.018 208.866 211.192 214.237 215.684C219.608 220.079 223.563 225.45 226.102 231.797C228.641 238.047 229.911 244.834 229.911 252.159C229.911 273.057 222.928 288.829 208.963 299.473C194.999 310.118 174.735 315.44 148.172 315.44H40.7993ZM114.334 276.329H148.172C158.329 276.329 165.946 274.327 171.024 270.323C176.2 266.319 178.788 260.215 178.788 252.012C178.788 245.86 177.811 240.782 175.858 236.778C173.905 232.676 170.877 229.649 166.776 227.696C162.674 225.645 157.303 224.62 150.663 224.62H114.334V276.329ZM114.334 190.635H135.135C147.245 190.635 156.278 188.731 162.235 184.922C168.29 181.016 171.317 175.01 171.317 166.905C171.317 158.018 168.485 151.573 162.821 147.569C157.254 143.467 148.758 141.417 137.333 141.417H114.334V190.635Z" fill="white"/>
<path d="M347.059 350.4H5.77844V9.64551H347.059V350.4Z" stroke="white" stroke-width="10"/>
</svg>
