<svg width="310" height="310" viewBox="0 0 310 310" fill="none" xmlns="http://www.w3.org/2000/svg">
<rect x="5" y="5.54248" width="300" height="299.037" fill="#090909" stroke="white" stroke-width="10"/>
<path d="M29.9993 280.58V254.183L49.443 250.062V123.742L29.9993 119.622V93.0961H49.443H114.856C138.463 93.0961 156.877 97.4312 170.097 106.101C183.317 114.772 189.927 127.691 189.927 144.86C189.927 153.702 187.824 161.643 183.617 168.682C179.411 175.635 172.93 180.915 164.174 184.52C171.642 186.151 177.737 188.941 182.458 192.89C187.18 196.753 190.657 201.474 192.888 207.054C195.12 212.548 196.236 218.514 196.236 224.953C196.236 243.323 190.099 257.187 177.823 266.544C165.547 275.901 147.734 280.58 124.385 280.58H29.9993ZM94.6399 246.199H124.385C133.313 246.199 140.008 244.439 144.472 240.92C149.022 237.4 151.297 232.035 151.297 224.824C151.297 219.416 150.439 214.952 148.722 211.432C147.005 207.827 144.344 205.166 140.738 203.449C137.133 201.646 132.411 200.745 126.574 200.745H94.6399V246.199ZM94.6399 170.871H112.925C123.569 170.871 131.51 169.197 136.746 165.849C142.069 162.415 144.73 157.136 144.73 150.011C144.73 142.199 142.24 136.533 137.261 133.014C132.368 129.408 124.9 127.605 114.856 127.605H94.6399V170.871Z" fill="white"/>
</svg>
